# xmcd CD database file
#
# Track frame offsets:
#	150
#	18265
#	35510
#	53620
#
# Disc length: 942 seconds
#
# Revision: 0
# Processed by: cddbd v1.5.1PL0 Copyright (c) Steve Scherf et al.
# Submitted via: CDex 1.51
#
DISCID=2503ac04
DTITLE=Bullet77 - Going on!
DYEAR=2004
DGENRE=Anime
TTITLE0=Going on!
TTITLE1=WILD FLOWER 〜花に嵐の喩えあり〜
TTITLE2=Going on! (instrumental)
TTITLE3=WILD FLOWER 〜花に嵐の喩えあり〜 (instrumental)
EXTD=YEAR: 2004
EXTT0=
EXTT1=
EXTT2=
EXTT3=
PLAYORDER=
